<svg xmlns="http://www.w3.org/2000/svg" viewBox="0 0 45.4 68"><defs><style>.cls-1{fill:#fff;}.cls-2{fill:#231f20;}</style></defs><title>Ресурс 1</title><g id="Слой_2" data-name="Слой 2"><g id="Layer_1" data-name="Layer 1"><polygon class="cls-1" points="45.4 0 0 0 0 68 45.4 68 45.4 0"/><polyline class="cls-2" points="44.7 0.7 44.7 67.3 0.7 67.3 0.7 0.7 44.7 0.7"/><rect class="cls-1" x="2.8" y="2.7" width="39.9" height="18.7"/><rect class="cls-1" x="2.8" y="23.5" width="39.9" height="34.2"/><polygon class="cls-1" points="2.7 65.2 2.7 59.7 10.8 59.7 10.8 61 6 61 6 61.8 10 61.8 10 63.1 6 63.1 6 63.9 10.9 63.9 10.9 65.2 2.7 65.2"/><path class="cls-1" d="M17.7,61.3a.7.7,0,0,0-.5-.4h-.8c-.7,0-1,.1-1,.3,0,.8,5.6.3,5.6,2.3,0,1.3-1.9,1.9-4.6,1.9s-4.3-.8-4.3-1.8h3.1a1,1,0,0,0,.5.4,2.77,2.77,0,0,0,.9.1c.8,0,1.3-.1,1.3-.4,0-.8-5.6-.3-5.6-2.4,0-1.2,1.8-1.7,4.3-1.7,2.7,0,4,.8,4.2,1.7Z"/><path class="cls-1" d="M25.9,62.1h1.3c1,0,1.5-.1,1.5-.5s-.5-.6-1.3-.6H25.9Zm0,1.2v1.9H22.7V59.7h4.6c3.3,0,4.3.5,4.3,1.6,0,.6-.5,1.2-1.6,1.3,1,.2,1.7.3,1.7,1.4,0,.7,0,1,.3,1v.2H28.7a1.85,1.85,0,0,1-.2-1c0-.7-.2-1-1.7-1h-.9Z"/><path class="cls-1" d="M36.8,61v.9h1.3c.6,0,1.1-.2,1.1-.5s-.6-.4-1.3-.4Zm0,1.9v1h1.4c.8,0,1.4-.1,1.4-.5s-.7-.5-1.8-.5Zm-3.2,2.3V59.7h4.7c2.2,0,4,.3,4,1.4,0,.6-.7,1-1.3,1.2,1.1.2,1.6.7,1.6,1.3,0,1.2-1.7,1.7-4.2,1.7H33.6Z"/><path class="cls-2" d="M3.9,11l1-6.2h1l1,6.2H6.1L5.9,9.6h-1L4.7,11ZM5.4,6h0L5,8.7h.7Z"/><path class="cls-2" d="M7.3,4.8H8.6a.85.85,0,0,1,.6.2.92.92,0,0,1,.4.6c.1.3.1.6.2,1V9.2a1.7,1.7,0,0,1-.1.7,1.42,1.42,0,0,1-.2.6.78.78,0,0,1-.4.4.85.85,0,0,1-.6.2H7.3Zm.8,5.3h.4a.37.37,0,0,0,.3-.1c.1-.1.1-.2.2-.4s.1-.4.1-.7V7.1A1.48,1.48,0,0,0,9,6.4a.76.76,0,0,0-.2-.5c-.1-.1-.2-.2-.3-.2H8.1Z"/><path class="cls-2" d="M13,4.8V9.2a1.7,1.7,0,0,1-.1.7,1.42,1.42,0,0,1-.2.6.78.78,0,0,1-.4.4,1.42,1.42,0,0,1-.6.2,1.23,1.23,0,0,1-1-.5,2.65,2.65,0,0,1-.3-1.4V4.8h.9V9.1c0,.4,0,.7.1.8s.2.2.3.2.3-.1.4-.3a1.72,1.72,0,0,0,.1-.8V4.8Z"/><path class="cls-2" d="M13.7,11V4.8h.8V10h1.2v1Z"/><path class="cls-2" d="M17.9,4.8v1H17V11h-.8V5.9h-.9v-1h2.6Z"/><path class="cls-2" d="M20.6,9.3a3.08,3.08,0,0,1-.1,1,2.19,2.19,0,0,1-.3.5.76.76,0,0,1-.4.2c-.2,0-.3.1-.5.1a1.42,1.42,0,0,1-.6-.2c-.1-.1-.3-.3-.3-.4s-.1-.4-.2-.6V9.1H19v.4a.37.37,0,0,0,.1.3.35.35,0,0,0,.1.2c.1.1.1.1.3.1s.2-.1.3-.2a.75.75,0,0,0,.1-.5.9.9,0,0,0-.1-.5c-.1-.1-.2-.3-.3-.4l-.4-.4-.4-.4-.3-.6a2,2,0,0,1-.1-.8,1.7,1.7,0,0,1,.1-.7,1.42,1.42,0,0,1,.2-.6c-.1.1.1-.1.2-.1a1.27,1.27,0,0,1,.6-.1c.4,0,.7.1.8.4a2,2,0,0,1,.2,1.4h-.8V6.3a.37.37,0,0,0-.1-.3.35.35,0,0,0-.1-.2c0-.1-.1-.1-.2-.1s-.2.1-.3.2a.75.75,0,0,0-.1.5.75.75,0,0,0,.1.5c.1.1.2.3.3.4a1.38,1.38,0,0,0,.4.3L20,8a3.33,3.33,0,0,1,.3.6A.78.78,0,0,1,20.6,9.3Z"/><path class="cls-2" d="M23.5,11.1a.78.78,0,0,1-.7-.3,1.61,1.61,0,0,1-.4-.7,3.08,3.08,0,0,1-.1-1V6.7c0-.4.1-.7.1-1a1.61,1.61,0,0,1,.4-.7.91.91,0,0,1,.7-.3.78.78,0,0,1,.7.3,1.61,1.61,0,0,1,.4.7,3.08,3.08,0,0,1,.1,1V9.1c0,.4-.1.7-.1,1a1.61,1.61,0,0,1-.4.7A.78.78,0,0,1,23.5,11.1Zm0-.9a.37.37,0,0,0,.3-.1c.1-.1.1-.2.1-.4s.1-.4.1-.7V7a1.48,1.48,0,0,0-.1-.7c0-.2-.1-.3-.1-.4a.5.5,0,0,0-.6,0c-.1.1-.1.2-.2.4s-.1.4-.1.7V9a1.48,1.48,0,0,0,.1.7.52.52,0,0,0,.2.4A.37.37,0,0,0,23.5,10.2Z"/><path class="cls-2" d="M25.4,11V4.8h1.1l1,4.3h0V4.8h.7V11h-1l-1-4.5h0V11Z"/><path class="cls-2" d="M28.9,11V4.8h.8V10h1.2v1Z"/><path class="cls-2" d="M31.5,8.9l-1-4.1h.9L32,7.4l.6-2.6h.7l-1,4.1v2.2h-.8Z"/><path class="cls-2" d="M34.8,6l.4-.4a2.19,2.19,0,0,0,.3-.5h.7v6h-.8V6.5c-.1.1-.2.3-.3.4l-.3.3Z"/><path class="cls-2" d="M38,11.1a.91.91,0,0,1-.8-.4,2.13,2.13,0,0,1-.3-1.2V9a.9.9,0,0,1,.1-.5.76.76,0,0,1,.2-.4l.3-.3h0c-.1,0-.2-.1-.3-.2s-.1-.2-.2-.3-.1-.2-.1-.4V6.4a1.74,1.74,0,0,1,.3-1.2.81.81,0,0,1,.8-.4.91.91,0,0,1,.8.4,2.13,2.13,0,0,1,.3,1.2v.5a.6.6,0,0,1-.1.4c0,.1-.1.2-.2.3l-.2.2h0l.3.3c.1.1.1.2.2.4a4.33,4.33,0,0,1,.1.5v.5a1.74,1.74,0,0,1-.3,1.2A1.22,1.22,0,0,1,38,11.1Zm0-2.8c-.1,0-.1,0-.2.1s-.1.2-.1.3V9.9a.35.35,0,0,0,.1.2c0,.1.1.1.2.1s.1,0,.2-.1.1-.1.1-.2V8.7a.37.37,0,0,0-.1-.3A.35.35,0,0,1,38,8.3Zm0-2.5c-.1,0-.1,0-.2.1s-.1.1-.1.2V7.2c0,.1,0,.2.1.2s.1.1.2.1.1,0,.2-.1.1-.1.1-.2V6.1c0-.1-.1-.1-.1-.2A.35.35,0,0,1,38,5.8Z"/><path class="cls-2" d="M40.1,6.1h.6V7.8h.9v1h-.9v1.7h-.6V8.8h-.9v-1h.9Z"/><path class="cls-2" d="M17.5,44.2l-.1-9.8,5.4,8.5Zm12.6-3.7a5,5,0,0,1-1.3.5c-3.4.8-5.8-1-6.7-4.2-.7-2.4-.3-4.4,1.3-5.7l-3.9-5.5L11,27.7,9.3,55.6l8.2-2V50l8.4-2.1,2,3.1,8.4-2.1-6.2-8.4"/><path class="cls-2" d="M24.1,36.3c.6,2.2,1.9,3.9,4.3,3.3a6.89,6.89,0,0,0,.8-.3l-4.8-6.8c-.8.9-.7,2.3-.3,3.8"/><path class="cls-2" d="M26,31.4c2.3-.6,3.6,1.1,4.3,3.3.6,1.9.5,3.7-1.1,4.5l.9,1.3c2.3-1.2,3-3.5,2.2-6.3-.9-3.2-3.3-5-6.7-4.2a6.39,6.39,0,0,0-2.2,1l1,1.4a3.16,3.16,0,0,1,1.6-1"/><path class="cls-2" d="M3.9,19.3l.7-6.2h.7l.6,6.2H5.3l-.1-1.4H4.5l-.1,1.4Zm.9-5h0L4.6,17h.5Z"/><path class="cls-2" d="M6.1,13.1h.8a.52.52,0,0,1,.4.2.85.85,0,0,1,.2.6,3.08,3.08,0,0,1,.1,1v2.6a1.7,1.7,0,0,1-.1.7c0,.2-.1.4-.1.6s-.1.3-.2.4a.52.52,0,0,1-.4.2H6V13.1Zm.5,5.3h.2c.1,0,.1,0,.2-.1s.1-.2.1-.4a2,2,0,0,1,.1-.7V14.7a4.33,4.33,0,0,0-.1-.5.22.22,0,0,0-.2-.2H6.6Z"/><path class="cls-2" d="M9.7,13.1v5.1c0,.2-.1.4-.1.6s-.1.3-.2.4a.52.52,0,0,1-.4.2.63.63,0,0,1-.6-.5,4.64,4.64,0,0,1-.2-1.4V13.1h.5v4.3c0,.4,0,.7.1.8s.1.2.2.2.2-.1.2-.3a1.72,1.72,0,0,0,.1-.8V13h.4Z"/><path class="cls-2" d="M10.1,19.3V13.1h.5v5.2h.7v1Z"/><path class="cls-2" d="M12.8,13.1v1h-.5v5.2h-.5V14.1h-.6v-1Z"/><path class="cls-2" d="M13.8,19.4a.55.55,0,0,1-.5-.3,1.45,1.45,0,0,1-.2-.7,3.08,3.08,0,0,1-.1-1V15a3.08,3.08,0,0,1,.1-1,6.37,6.37,0,0,1,.2-.7.57.57,0,0,1,1,0,1.45,1.45,0,0,1,.2.7,3.08,3.08,0,0,1,.1,1v2.4a3.08,3.08,0,0,1-.1,1,6.37,6.37,0,0,1-.2.7A.46.46,0,0,1,13.8,19.4Zm0-.9c.1,0,.1,0,.2-.1s.1-.2.1-.4V14.6c0-.2-.1-.3-.1-.4s-.1-.1-.2-.1-.1,0-.2.1-.1.2-.1.4V18c0,.2.1.3.1.4A.35.35,0,0,1,13.8,18.5Z"/><path class="cls-2" d="M16.5,17.6a3.08,3.08,0,0,1-.1,1,.76.76,0,0,1-.2.5c-.1.1-.2.2-.3.2s-.2.1-.3.1a.52.52,0,0,1-.4-.2.76.76,0,0,1-.2-.4c0-.2-.1-.4-.1-.6v-.8h.5v.7c0,.1,0,.2.1.2s.1.1.2.1.1-.1.2-.2a4.33,4.33,0,0,0,.1-.5.9.9,0,0,0-.1-.5.76.76,0,0,0-.2-.4.52.52,0,0,1-.2-.4.76.76,0,0,1-.2-.4c-.1-.2-.1-.4-.2-.6s-.1-.5-.1-.8v-.7c0-.2.1-.4.1-.6s.1-.3.2-.4.2-.1.4-.1a.51.51,0,0,1,.5.4,4.64,4.64,0,0,1,.2,1.4h-.5V14c0-.1,0-.2-.1-.2a.1.1,0,0,0-.1-.1c-.1,0-.1.1-.2.2a4.33,4.33,0,0,0-.1.5.75.75,0,0,0,.1.5c.1.1.1.3.2.4s.2.2.2.3a.76.76,0,0,1,.2.4,4.17,4.17,0,0,1,.2.6A2,2,0,0,1,16.5,17.6Z"/><path class="cls-2" d="M19.2,13.1v5.1c0,.2-.1.4-.1.6s-.1.3-.2.4a.52.52,0,0,1-.4.2.63.63,0,0,1-.6-.5,4.64,4.64,0,0,1-.2-1.4V13.1h.5v4.3c0,.4,0,.7.1.8s.1.2.2.2.2-.1.2-.3.1-.4.1-.8V13h.4Z"/><polygon class="cls-2" points="18.8 11.7 18.3 12.9 18.1 12.9 18.4 11.7 18.8 11.7"/><path class="cls-2" d="M19.7,19.3V13.1h.6l.6,4.3h0V13.1h.5v6.2h-.7l-.6-4.5h0v4.5Z"/><path class="cls-2" d="M21.9,19.3V13.1h.5v6.2Z"/><path class="cls-2" d="M23.6,19.4a.55.55,0,0,1-.5-.3,1.45,1.45,0,0,1-.2-.7,3.08,3.08,0,0,1-.1-1V15a3.08,3.08,0,0,1,.1-1,6.37,6.37,0,0,1,.2-.7.55.55,0,0,1,.5-.3c.3,0,.4.2.5.5a3.55,3.55,0,0,1,.1,1.5h-.5v-.9c0-.2-.1-.3-.2-.3s-.1,0-.2.1-.1.2-.1.4v3.4c0,.2.1.3.1.4s.1.1.2.1.1,0,.1-.1.1-.2.1-.3V17h.6v1c0,.3-.1.5-.1.7s-.1.3-.2.4C23.8,19.4,23.7,19.4,23.6,19.4Z"/><path class="cls-2" d="M24.4,19.3l.7-6.2h.7l.6,6.2h-.5l-.2-1.4H25l-.1,1.4Zm1-5h0L25.2,17h.5Z"/><path class="cls-2" d="M26.6,19.3V13.1h.8l.4,4.2h0l.4-4.2H29v6.2h-.5V14.5h0L28,19.3h-.5l-.4-4.8h0v4.8Z"/><path class="cls-2" d="M29.4,19.3V13.1h1.3v1h-.8v1.5h.7v1h-.7v1.8h.8v1H29.4Z"/><path class="cls-2" d="M31,19.3V13.1h.7l.6,4.3h0V13.1h.5v6.2h-.7l-.7-4.5h0v4.5Z"/><path class="cls-2" d="M34.7,13.1v1h-.6v5.2h-.5V14.1H33v-1Z"/><path class="cls-2" d="M34.9,19.3V13.1h1.3v1h-.8v1.5h.7v1h-.7v1.8h.8v1H34.9Z"/><path class="cls-2" d="M37.7,14.4h.4v1.7h.6v1h-.6v1.7h-.4V17.1h-.6v-1h.6Z"/><path class="cls-2" d="M38.9,14.2a.76.76,0,0,0,.2-.4c.1-.1.1-.3.2-.5h.4v6h-.4V14.7c-.1.1-.1.3-.2.4s-.1.2-.2.3Z"/><path class="cls-2" d="M40.9,19.4a.51.51,0,0,1-.5-.4,3.73,3.73,0,0,1-.2-1.2v-1c0-.1.1-.3.1-.4s.1-.2.2-.3h0c-.1,0-.1-.1-.2-.2s-.1-.2-.1-.3a.76.76,0,0,0-.1-.4v-.5a2.87,2.87,0,0,1,.2-1.2.51.51,0,0,1,1,0,3.73,3.73,0,0,1,.2,1.2v.9c0,.1-.1.2-.1.3s-.1.1-.2.2h0c.1.1.1.2.2.3s.1.2.1.4v1a2.87,2.87,0,0,1-.2,1.2A.37.37,0,0,1,40.9,19.4Zm0-2.8c-.1,0-.1,0-.1.1a.37.37,0,0,1-.1.3v1.2c0,.1,0,.2.1.2a.1.1,0,0,0,.2,0c0-.1,0-.1.1-.2V17a.37.37,0,0,0-.1-.3A.1.1,0,0,0,40.9,16.6Zm0-2.5h0c-.1.1-.1.2-.2.3v1.1c0,.1,0,.2.1.2a.1.1,0,0,0,.2,0c0-.1,0-.1.1-.2V14.4c0-.1-.1-.1-.2-.3Z"/></g></g></svg>