<?xml version="1.0" encoding="UTF-8"?> <!-- Generator: Adobe Illustrator 22.0.1, SVG Export Plug-In . SVG Version: 6.00 Build 0) --> <svg xmlns="http://www.w3.org/2000/svg" xmlns:xlink="http://www.w3.org/1999/xlink" id="Слой_1" x="0px" y="0px" viewBox="0 0 45.4 68" style="enable-background:new 0 0 45.4 68;" xml:space="preserve"> <style type="text/css"> .st0{fill:#FFFFFF;} .st1{fill:#231F20;} </style> <title>Ресурс 1</title> <g> <g> <polygon class="st0" points="45.4,0 0,0 0,68 45.4,68 "></polygon> <polyline class="st1" points="44.7,0.7 44.7,67.3 0.7,67.3 0.7,0.7 44.7,0.7 "></polyline> <rect x="2.8" y="2.8" class="st0" width="39.9" height="18.7"></rect> <rect x="2.8" y="23.6" class="st0" width="39.9" height="34.2"></rect> <polygon class="st0" points="2.7,65.2 2.7,59.7 10.8,59.7 10.8,61 6,61 6,61.8 10,61.8 10,63.1 6,63.1 6,63.9 10.9,63.9 10.9,65.2 "></polygon> <path class="st0" d="M17.7,61.3c-0.1-0.2-0.3-0.4-0.5-0.4c-0.3-0.1-0.5-0.1-0.8-0.1c-0.7,0-1,0.1-1,0.3c0,0.8,5.6,0.3,5.6,2.3 c0,1.3-1.9,1.9-4.6,1.9s-4.3-0.8-4.3-1.8h3.1c0.1,0.2,0.3,0.3,0.5,0.4C16,64,16.3,64,16.6,64c0.8,0,1.3-0.1,1.3-0.4 c0-0.8-5.6-0.3-5.6-2.4c0-1.2,1.8-1.7,4.3-1.7c2.7,0,4,0.8,4.2,1.7h-3.1V61.3z"></path> <path class="st0" d="M25.9,62.1h1.3c1,0,1.5-0.1,1.5-0.5S28.2,61,27.4,61h-1.5V62.1z M25.9,63.3v1.9h-3.2v-5.5h4.6 c3.3,0,4.3,0.5,4.3,1.6c0,0.6-0.5,1.2-1.6,1.3c1,0.2,1.7,0.3,1.7,1.4c0,0.7,0,1,0.3,1v0.2h-3.3c-0.2-0.3-0.2-0.7-0.2-1 c0-0.7-0.2-1-1.7-1h-0.9V63.3z"></path> <path class="st0" d="M36.8,61v0.9h1.3c0.6,0,1.1-0.2,1.1-0.5S38.6,61,37.9,61H36.8z M36.8,62.9v1h1.4c0.8,0,1.4-0.1,1.4-0.5 s-0.7-0.5-1.8-0.5H36.8z M33.6,65.2v-5.5h4.7c2.2,0,4,0.3,4,1.4c0,0.6-0.7,1-1.3,1.2c1.1,0.2,1.6,0.7,1.6,1.3 c0,1.2-1.7,1.7-4.2,1.7L33.6,65.2L33.6,65.2z"></path> <path d="M24,44.8c-0.6-2.2-1.7-3.4-3.4-3.9c1-1.2,1.6-3.1,0.8-6c-1.1-4.1-3.9-6-7.3-5.1l-7.7,2.1H6.2l6.4,23.7l5.2-1.4 c0,0-2.1-7.8-2.5-9.1l0.3-0.1c0.6-0.2,1.2-0.2,1.8,0c0.7,0.4,1,1.6,1.4,3l0.3,1.1c0.3,1.4,0.8,2.7,1.6,3.9l0.3,0.5l5.9-1.6l-0.8-1 C25.2,48.9,24.5,46.9,24,44.8z M15.6,40.6c0,0-0.7,0.2-1.3,0.3c-0.4-1.4-1.3-4.7-1.7-6.1c0.4-0.1,0.9-0.2,1.3-0.3 c0.6-0.2,1.7-0.4,2.4,2.4C16.5,37.4,17.1,40.1,15.6,40.6z"></path> <path d="M30.5,25.9l-7,1.9L22.7,28l6.4,23.7l5.3-1.4c0,0-2.1-7.6-2.4-9c0.9-0.2,2.3-0.6,2.3-0.6c4.1-1.1,5.7-4.3,4.4-9 C37,25.5,33.3,25.1,30.5,25.9z M32.7,36.4c0,0-1,0.3-1.9,0.5c-0.4-1.4-1.3-4.7-1.7-6.1l1.6-0.4c0.9-0.2,2-0.2,2.8,2.8 C33.9,34.6,33.5,36.2,32.7,36.4z"></path> <path class="st1" d="M4.7,11.1H3.9V4.9h1.5C5.7,4.9,6,5,6.1,5.3c0.2,0.4,0.2,0.8,0.2,1.2c0,0.3-0.1,0.7-0.2,1C6,7.7,5.8,7.9,5.6,8 l0,0c0.1,0,0.1,0,0.2,0.1C5.9,8.1,6,8.2,6,8.3c0.1,0.1,0.1,0.2,0.2,0.4c0.1,0.2,0.1,0.5,0.1,0.7v1.7H5.5c-0.1-0.2-0.1-0.4-0.1-0.6 V9.4c0-0.2,0-0.3-0.1-0.4S5.2,8.8,5.1,8.7C5,8.6,4.9,8.6,4.8,8.6H4.7V11.1z M4.7,7.5h0.4c0.1,0,0.1,0,0.2-0.1s0.1-0.1,0.1-0.2 S5.5,7,5.5,6.9V6.6c0-0.3,0-0.5-0.1-0.6S5.1,5.8,5,5.8H4.7V7.5z"></path> <path class="st1" d="M6.5,11.1l1.1-6.2h1l1,6.2H8.8L8.6,9.7H7.5l-0.2,1.4L6.5,11.1z M8.1,6L8.1,6L7.7,8.7h0.7L8.1,6z"></path> <path class="st1" d="M12,4.9v1h-0.9v5.2h-0.8V5.9H9.4v-1H12z"></path> <path class="st1" d="M12.4,11.1V4.9h0.8v6.2H12.4z"></path> <path class="st1" d="M13.8,11.1V4.9h1.1l1,4.3l0,0V4.9h0.7v6.2h-1.1l-1-4.5l0,0v4.5H13.8z"></path> <path class="st1" d="M19.1,6.8V6.4c0-0.1,0-0.2-0.1-0.3C19,6,19,6,18.9,5.9c-0.1-0.1-0.1-0.1-0.3-0.1S18.4,5.9,18.3,6 c-0.1,0.1-0.1,0.3-0.1,0.5c0,0.2,0,0.5-0.1,0.7v2.1c0,0.2,0,0.5,0.1,0.7c0,0.2,0.1,0.3,0.2,0.3c0.1,0.1,0.2,0.1,0.3,0.1h0.2 c0.1,0,0.1-0.1,0.2-0.1V8.8h-0.4v-1h1.2v3.1c-0.1,0-0.1,0-0.2,0.1c-0.1,0-0.2,0-0.3,0.1c-0.1,0-0.2,0-0.3,0.1h-0.3 c-0.3,0-0.6-0.1-0.8-0.2c-0.2-0.1-0.3-0.3-0.5-0.6c-0.1-0.3-0.1-0.7-0.1-1V6.7c0-0.3,0.1-0.7,0.2-1C17.7,5.4,17.8,5.2,18,5 c0.2-0.2,0.5-0.3,0.8-0.3c0.2,0,0.4,0,0.5,0.1c0.2,0.1,0.3,0.2,0.4,0.4c0.1,0.2,0.2,0.4,0.2,0.6C20,6.1,20,6.4,20,6.7h-0.9V6.8z"></path> <path class="st1" d="M21.7,4.9h1.4c0.2,0,0.3,0,0.5,0.1c0.1,0.1,0.2,0.2,0.3,0.4C24,5.6,24,5.8,24.1,6s0.1,0.5,0.1,0.8v0.6 c0,0.2-0.1,0.4-0.1,0.6s-0.2,0.3-0.3,0.5c-0.2,0.1-0.4,0.2-0.6,0.2h-0.6v2.5h-0.8V4.9H21.7z M22.5,7.6h0.4c0.1,0,0.1,0,0.2-0.1 c0.1-0.1,0.1-0.1,0.1-0.2c0-0.1,0.1-0.2,0.1-0.3V6.3c0-0.1,0-0.2-0.1-0.3c0-0.1,0-0.1-0.1-0.2c-0.1,0-0.1-0.1-0.2-0.1h-0.4V7.6z"></path> <path class="st1" d="M24.7,11.1V4.9h2.1v1h-1.3v1.5h1.2v1h-1.2v1.8h1.3v1L24.7,11.1L24.7,11.1z"></path> <path class="st1" d="M27.3,11.1V4.9h1.1l1,4.3l0,0V4.9h0.7v6.2H29l-1-4.5l0,0v4.5H27.3z"></path> <path class="st1" d="M30.8,4.9h1.3c0.2,0,0.4,0.1,0.6,0.2c0.2,0.1,0.4,0.4,0.4,0.6c0.1,0.3,0.1,0.6,0.2,1v2.6c0,0.2,0,0.5-0.1,0.7 c0,0.2-0.1,0.4-0.2,0.6c-0.1,0.2-0.2,0.3-0.4,0.4c-0.2,0.1-0.4,0.2-0.6,0.2h-1.3L30.8,4.9L30.8,4.9z M31.6,10.1H32 c0.1,0,0.2,0,0.3-0.1c0.1-0.1,0.1-0.2,0.2-0.4s0.1-0.4,0.1-0.7V7.1c0-0.2,0-0.5-0.1-0.7c0-0.2-0.1-0.4-0.2-0.5 c-0.1-0.1-0.2-0.2-0.3-0.2h-0.4L31.6,10.1z"></path> <path class="st1" d="M34,11.1V4.9h0.8v6.2H34z"></path> <path class="st1" d="M35.5,11.1V4.9h1.1l1,4.3l0,0V4.9h0.8v6.2h-1.1l-1-4.5l0,0v4.5H35.5z"></path> <path class="st1" d="M3.9,19.3l0.9-6.2h0.9l0.9,6.2H5.9l-0.2-1.4h-1l-0.2,1.4H3.9z M5.2,14.3L5.2,14.3L4.9,17h0.7L5.2,14.3z"></path> <path class="st1" d="M9.2,13.2v4.4c0,0.2,0,0.5-0.1,0.7c0,0.2-0.1,0.4-0.2,0.6c-0.1,0.2-0.2,0.3-0.3,0.4c-0.1,0.1-0.3,0.2-0.5,0.2 c-0.4,0-0.7-0.2-0.9-0.5c-0.2-0.4-0.3-0.9-0.3-1.4v-4.4h0.7v4.3c0,0.4,0,0.7,0.1,0.8s0.2,0.2,0.3,0.2c0.1,0,0.3-0.1,0.3-0.2 c0,0,0,0,0-0.1c0.1-0.3,0.1-0.5,0.1-0.8v-4.3L9.2,13.2L9.2,13.2z"></path> <polygon class="st1" points="8.7,11.7 8,12.9 7.7,12.9 8.1,11.7 "></polygon> <path class="st1" d="M9.8,19.3v-6.2h0.9l0.9,4.3l0,0v-4.3h0.7v6.2h-0.9l-0.9-4.5l0,0v4.5H9.8z"></path> <path class="st1" d="M16,17.7c0,0.3,0,0.7-0.1,1c-0.1,0.2-0.2,0.3-0.3,0.5c-0.1,0.1-0.2,0.2-0.4,0.2c-0.1,0-0.3,0.1-0.4,0.1 c-0.2,0-0.4-0.1-0.5-0.2c-0.1-0.1-0.2-0.3-0.3-0.4c-0.1-0.2-0.1-0.4-0.1-0.6v-0.8h0.7v0.7c0,0.1,0,0.1,0.1,0.2 c0.1,0.1,0.1,0.1,0.2,0.1s0.2-0.1,0.3-0.2c0.1-0.1,0.1-0.3,0.1-0.5c0-0.2,0-0.3-0.1-0.5c-0.1-0.1-0.2-0.3-0.3-0.4 c-0.1-0.1-0.2-0.2-0.3-0.4c-0.1-0.1-0.2-0.3-0.3-0.4L14,15.5c-0.1-0.3-0.1-0.5-0.1-0.8c0-0.2,0-0.5,0.1-0.7c0-0.2,0.1-0.4,0.2-0.6 c0.1-0.2,0.2-0.3,0.3-0.4c0.1-0.1,0.3-0.1,0.5-0.1c0.3,0,0.6,0.1,0.8,0.4c0.2,0.4,0.3,0.9,0.2,1.4h-0.7v-0.6c0-0.1,0-0.1-0.1-0.2 c0-0.1-0.1-0.1-0.2-0.1s-0.2,0.1-0.3,0.2c-0.1,0.1-0.1,0.3-0.1,0.5c0,0.2,0,0.4,0.1,0.5c0.1,0.1,0.2,0.3,0.3,0.4l0.3,0.3 c0.1,0.1,0.2,0.3,0.3,0.4c0.1,0.2,0.2,0.4,0.3,0.6C16,17,16,17.4,16,17.7z"></path> <path class="st1" d="M16.5,19.3v-6.2h0.7v6.2H16.5z"></path> <path class="st1" d="M17.8,19.3v-6.2h0.9l0.9,4.3l0,0v-4.3h0.7v6.2h-0.9l-0.9-4.5l0,0v4.5H17.8z"></path> <path class="st1" d="M23,19.4c-0.6,0-1-0.4-1-1c-0.1-0.3-0.1-0.7-0.1-1V15c0-0.4,0.1-0.7,0.1-1c0.1-0.2,0.2-0.5,0.3-0.7 c0.2-0.2,0.4-0.3,0.7-0.3c0.3,0,0.7,0.2,0.8,0.5C24,14,24,14.5,24,15h-0.7c0-0.3,0-0.6-0.1-0.9c0-0.2-0.1-0.3-0.2-0.3 s-0.2,0-0.2,0.1s-0.1,0.2-0.1,0.4s-0.1,0.4-0.1,0.7v2c0,0.2,0,0.5,0.1,0.7c0,0.2,0.1,0.3,0.1,0.4s0.1,0.1,0.2,0.1s0.1,0,0.2-0.1 s0.1-0.2,0.1-0.3V17H24c0,0.3,0,0.7-0.1,1c0,0.2-0.1,0.5-0.2,0.7c-0.1,0.2-0.2,0.3-0.3,0.4C23.3,19.4,23.2,19.4,23,19.4z"></path> <path class="st1" d="M24.2,19.3l0.9-6.2H26l0.9,6.2h-0.7L26,17.9h-1l-0.2,1.4H24.2z M25.6,14.3L25.6,14.3L25.3,17H26L25.6,14.3z"></path> <path class="st1" d="M27.3,19.3v-6.2H28v5.2h1v1H27.3z"></path> <path class="st1" d="M29.4,19.3v-6.2h0.7v6.2H29.4z"></path> <path class="st1" d="M30.7,19.3v-6.2h1.7v1h-1v1.6h1v1h-1v2.7h-0.7V19.3z"></path> <path class="st1" d="M32.7,19.3v-6.2h0.7v6.2H32.7z"></path> <path class="st1" d="M35.2,19.4c-0.6,0-1-0.4-1-1c-0.1-0.3-0.1-0.7-0.1-1V15c0-0.4,0.1-0.7,0.1-1c0.1-0.2,0.2-0.5,0.3-0.7 c0.2-0.2,0.4-0.3,0.7-0.3c0.3,0,0.7,0.2,0.8,0.5c0.2,0.5,0.2,1,0.2,1.5h-0.8c0-0.3,0-0.6-0.1-0.9c0-0.2-0.1-0.3-0.2-0.3 s-0.2,0-0.2,0.1s-0.1,0.2-0.1,0.4s-0.1,0.4-0.1,0.7v2c0,0.2,0,0.5,0.1,0.7c0,0.2,0.1,0.3,0.1,0.4s0.1,0.1,0.2,0.1s0.1,0,0.2-0.1 s0.1-0.2,0.1-0.3V17h0.7c0,0.3,0,0.7-0.1,1c0,0.2-0.1,0.5-0.2,0.7c-0.1,0.2-0.2,0.3-0.3,0.4C35.5,19.4,35.3,19.4,35.2,19.4z"></path> <path class="st1" d="M36.4,19.3l0.9-6.2h0.9l0.9,6.2h-0.7l-0.2-1.4h-1L37,19.3H36.4z M37.7,14.3L37.7,14.3L37.4,17h0.7L37.7,14.3z "></path> <path class="st1" d="M40.1,19.3h-0.7v-6.2h1.3c0.3,0,0.5,0.2,0.6,0.4c0.1,0.4,0.2,0.8,0.2,1.2c0,0.3,0,0.7-0.1,1 c-0.1,0.2-0.3,0.4-0.5,0.5l0,0c0.1,0,0.1,0,0.2,0.1c0.1,0,0.1,0.1,0.2,0.2s0.1,0.2,0.2,0.4c0.1,0.2,0.1,0.5,0.1,0.7v1.7h-0.7 c0-0.2-0.1-0.4-0.1-0.6v-1.5c0-0.1-0.1-0.2-0.1-0.3c-0.1-0.1-0.3-0.1-0.4-0.1h-0.2V19.3z M40.1,15.8h0.3c0.1,0,0.1,0,0.2-0.1 s0.1-0.1,0.1-0.2c0-0.1,0-0.2,0.1-0.3v-0.3c0-0.3,0-0.5-0.1-0.6s-0.2-0.2-0.3-0.2h-0.3V15.8z"></path> </g> </g> </svg> 