<svg xmlns="http://www.w3.org/2000/svg" viewBox="0 0 45.4 68"><defs><style>.cls-1{fill:#fff;}.cls-2{fill:#231f20;}</style></defs><title>Ресурс 1</title><g id="Слой_2" data-name="Слой 2"><g id="Layer_1" data-name="Layer 1"><polygon class="cls-1" points="45.4 0 0 0 0 68 45.4 68 45.4 0"/><polyline class="cls-2" points="44.7 0.7 44.7 67.3 0.7 67.3 0.7 0.7 44.7 0.7"/><rect class="cls-1" x="2.8" y="2.8" width="39.9" height="18.7"/><rect class="cls-1" x="2.8" y="23.5" width="39.9" height="34.2"/><polygon class="cls-1" points="2.8 65.2 2.8 59.7 10.8 59.7 10.8 61 6 61 6 61.8 10 61.8 10 63.1 6 63.1 6 63.9 11 63.9 11 65.2 2.8 65.2"/><path class="cls-1" d="M17.8,61.3a.7.7,0,0,0-.5-.4h-.8c-.7,0-1,.1-1,.3,0,.8,5.6.3,5.6,2.3,0,1.3-1.9,1.9-4.6,1.9s-4.3-.8-4.3-1.8h3.1a1,1,0,0,0,.5.4,2.77,2.77,0,0,0,.9.1c.8,0,1.3-.1,1.3-.4,0-.8-5.6-.3-5.6-2.4,0-1.2,1.8-1.7,4.3-1.7,2.7,0,4,.8,4.2,1.7Z"/><path class="cls-1" d="M25.9,62.1h1.3c1,0,1.5-.1,1.5-.5s-.5-.6-1.3-.6H25.9Zm0,1.2v1.9H22.7V59.7h4.6c3.3,0,4.3.5,4.3,1.6,0,.6-.5,1.2-1.6,1.3,1,.2,1.7.3,1.7,1.4,0,.7,0,1,.3,1v.2H28.7a1.85,1.85,0,0,1-.2-1c0-.7-.2-1-1.7-1h-.9Z"/><path class="cls-1" d="M36.9,61v.9h1.3c.6,0,1.1-.2,1.1-.5S38.7,61,38,61Zm0,1.9v1h1.4c.8,0,1.4-.1,1.4-.5s-.7-.5-1.8-.5Zm-3.2,2.3V59.7h4.7c2.2,0,4,.3,4,1.4,0,.6-.7,1-1.3,1.2,1.1.2,1.6.7,1.6,1.3,0,1.2-1.7,1.7-4.2,1.7H33.7Z"/><path class="cls-2" d="M3.9,11.1V4.8H5.5L6.2,9h0L7,4.8H8.6V11h-1V6.2h0L6.7,11H5.8L4.9,6.2h0V11h-1Z"/><path class="cls-2" d="M9,11.1l1.3-6.2h1.3l1.3,6.2h-1l-.3-1.4H10.2l-.3,1.4ZM10.9,6h0l-.5,2.7h.9Z"/><path class="cls-2" d="M15.8,4.8v1H14.7V11h-1V5.9H12.6v-1h3.2Z"/><path class="cls-2" d="M19.5,4.8V9.2a1.7,1.7,0,0,1-.1.7c-.1.2-.1.4-.3.6a1,1,0,0,1-.5.4,1.88,1.88,0,0,1-.8.2,1.5,1.5,0,0,1-1.2-.5,2,2,0,0,1-.4-1.4V4.8h1V9.1a1.29,1.29,0,0,0,.2.8.4.4,0,0,0,.4.2.55.55,0,0,0,.5-.3,1.55,1.55,0,0,0,.2-.8V4.8Z"/><path class="cls-2" d="M21.3,11.1h-1V4.8h1.8a.91.91,0,0,1,.8.4,2.13,2.13,0,0,1,.3,1.2,3,3,0,0,1-.2,1c-.1.3-.4.4-.7.5h0c.1,0,.1,0,.2.1s.2.1.3.2a.52.52,0,0,1,.2.4,1.48,1.48,0,0,1,.1.7v1.5c0,.2,0,.3.1.3h-1a1.27,1.27,0,0,1-.1-.6V9.4c0-.2,0-.3-.1-.4s-.1-.2-.2-.3-.2-.1-.4-.1h-.3v2.5Zm0-3.6h.4c.1,0,.2,0,.2-.1l.2-.2c0-.1.1-.2.1-.3V6.6c0-.3,0-.5-.1-.6a.52.52,0,0,0-.4-.2h-.4Z"/><path class="cls-2" d="M24,11.1V4.8h2.6v1H25V7.3h1.5v1H25v1.8h1.6v1Z"/><path class="cls-2" d="M28.6,6c.2-.1.3-.3.5-.4a1.76,1.76,0,0,0,.4-.5h.9v6h-1V6.5c-.1.1-.2.3-.4.4s-.3.2-.4.3Z"/><path class="cls-2" d="M33.9,6.2l-1.1,4.9h-1L33.1,6H31.5V5H34V6.2Z"/><path class="cls-2" d="M35.4,6.1h.7V7.8h1.1v1H36.1v1.7h-.7V8.8H34.3v-1h1.1Z"/><polygon class="cls-2" points="7.5 32 17.5 29.3 23.3 42.8 23.3 42.8 21.6 28.3 31.7 25.6 38 49.1 31.8 50.8 27.3 33.9 27.3 33.9 29.2 51.5 22.5 53.2 15.4 37.1 15.4 37.1 19.9 54 13.7 55.6 7.5 32"/><path class="cls-2" d="M3.9,19.3V13.1H5.5l.7,4.2h0L7,13.1H8.6v6.2h-1V14.5h0l-.9,4.8h-1l-.9-4.8h0v4.8Z"/><path class="cls-2" d="M9,19.3l1.3-6.2h1.3l1.3,6.2H11.8l-.3-1.4H10.1l-.3,1.4Zm2-5h0L10.5,17h1Z"/><path class="cls-2" d="M13.5,13.1h1.7a1.88,1.88,0,0,1,.8.2,1,1,0,0,1,.5.6,3,3,0,0,1,.2,1c0,.4.1.8.1,1.3v1.3c0,.2-.1.5-.1.7s-.1.4-.3.6a1,1,0,0,1-.5.4,1.45,1.45,0,0,1-.7.2H13.6V13.1Zm1,5.3H15c.2,0,.3,0,.4-.1a.52.52,0,0,0,.2-.4,1.48,1.48,0,0,0,.1-.7V15.4a1.48,1.48,0,0,0-.1-.7.76.76,0,0,0-.2-.5A.52.52,0,0,0,15,14h-.5Z"/><path class="cls-2" d="M20.7,13.1v4.4a1.7,1.7,0,0,1-.1.7c-.1.2-.1.4-.3.6a1,1,0,0,1-.5.4,1.88,1.88,0,0,1-.8.2,1.36,1.36,0,0,1-1.2-.5,2,2,0,0,1-.4-1.4V13.1h1v4.3a1.29,1.29,0,0,0,.2.8.4.4,0,0,0,.4.2.55.55,0,0,0,.5-.3,1.55,1.55,0,0,0,.2-.8V13h1Z"/><path class="cls-2" d="M22.5,19.3h-1V13.1h1.8a.91.91,0,0,1,.8.4,2.13,2.13,0,0,1,.3,1.2,3,3,0,0,1-.2,1c-.1.3-.4.4-.7.5h0c.1,0,.1,0,.2.1s.2.1.3.2a.52.52,0,0,1,.2.4,1.48,1.48,0,0,1,.1.7V19c0,.2,0,.3.1.3h-1a1.27,1.27,0,0,1-.1-.6V17.6c0-.2,0-.3-.1-.4s-.1-.2-.2-.3-.2-.1-.4-.1h-.3v2.5Zm0-3.5h.4c.1,0,.2,0,.2-.1l.2-.2c0-.1.1-.2.1-.3v-.3c0-.3,0-.5-.1-.6a.52.52,0,0,0-.4-.2h-.4Z"/><path class="cls-2" d="M26.8,19.4a1.69,1.69,0,0,1-1-.3,1.79,1.79,0,0,1-.5-.7,3,3,0,0,1-.2-1V15a3,3,0,0,1,.2-1,1.79,1.79,0,0,1,.5-.7,1.33,1.33,0,0,1,1-.3,1.69,1.69,0,0,1,1,.3,1.79,1.79,0,0,1,.5.7,3,3,0,0,1,.2,1v2.4a3,3,0,0,1-.2,1,1.79,1.79,0,0,1-.5.7A1.21,1.21,0,0,1,26.8,19.4Zm0-.9c.1,0,.3,0,.3-.1s.1-.2.2-.4.1-.4.1-.7v-2a1.48,1.48,0,0,0-.1-.7.52.52,0,0,0-.2-.4.37.37,0,0,0-.3-.1c-.1,0-.3,0-.3.1s-.1.2-.2.4-.1.4-.1.7v2a1.48,1.48,0,0,0,.1.7.52.52,0,0,0,.2.4C26.5,18.5,26.6,18.5,26.8,18.5Z"/><path class="cls-2" d="M31.6,14.4h.7v1.7h1.1v1H32.3v1.7h-.7V17.1H30.5v-1h1.1Z"/><path class="cls-2" d="M33.9,14.3c.2-.1.3-.3.5-.4a1,1,0,0,0,.4-.5h.9v6h-1V14.8c-.1.1-.2.3-.4.4s-.3.2-.4.3Z"/><path class="cls-2" d="M39.2,14.5l-1.1,4.9h-1l1.3-5.1H36.8v-.9h2.5v1.1Z"/></g></g></svg>